<?xml version="1.0" encoding="UTF-8"?><svg id="Layer_2" xmlns="http://www.w3.org/2000/svg" xmlns:xlink="http://www.w3.org/1999/xlink" viewBox="0 0 712 440"><defs><style>.cls-1{fill:#fff;}.cls-2{fill:url(#linear-gradient);filter:url(#drop-shadow-1);}</style><linearGradient id="linear-gradient" x1="323.58" y1="71.5" x2="392.07" y2="360.14" gradientUnits="userSpaceOnUse"><stop offset="0" stop-color="#00fdff"/><stop offset="1" stop-color="#aa00f9"/></linearGradient><filter id="drop-shadow-1" filterUnits="userSpaceOnUse"><feOffset dx="3.14" dy="3.14"/><feGaussianBlur result="blur" stdDeviation="1.57"/><feFlood flood-color="#000" flood-opacity=".2"/><feComposite in2="blur" operator="in"/><feComposite in="SourceGraphic"/></filter></defs><g id="Layer_1-2"><g><path class="cls-2" d="M694.78,267.56V2.31l-26.93,5.1V74.74l-107.72,20.41V27.82l-26.93,5.1-71.25,92.76-21.75-14.74-13.32,21.84,37.88,26.39,68.44-90.35v98.82l-46.33,8.78v-.07l-39.86,7.55c-14.89,2.82-27.59-.03-38.09-8.55-10.51-8.52-15.77-20.22-15.77-35.11s5.25-28.58,15.77-41.08c10.51-12.5,23.21-20.16,38.09-22.98l39.86-7.55v-26.93l-39.86,7.55c-22.29,4.22-41.33,15.72-57.11,34.5-15.79,18.77-23.68,39.31-23.68,61.6,0,20.82,6.89,37.49,20.65,50.02l-39.71,7.52v-.07l-134.65,25.51v-40.4l107.72-20.41v-26.93l-107.72,20.41v-40.4l118.34-22.42c3.44,3.53,8.27,5.65,13.79,5.65,1.34,0,2.71-.13,4.06-.39,11.32-2.14,20.18-12.74,20.18-24.12s-8.25-19.4-19.19-19.4c-1.34,0-2.7,.13-4.06,.39-6.74,1.28-12.59,5.56-16.24,11.22l-143.81,27.25L41.67,126.06c-3.45-4.46-8.85-7.24-15.15-7.24-1.34,0-2.7,.13-4.06,.39-11.32,2.14-20.18,12.74-20.18,24.12s8.25,19.4,19.19,19.4c1.34,0,2.7-.13,4.06-.39,5.86-1.11,11.06-4.5,14.71-9.09l51.08-9.68v107.8l-5.19,.98c-13.02,2.47-24.13,9.17-33.33,20.11-9.2,10.95-13.8,22.93-13.8,35.94s4.6,23.25,13.8,30.71c9.2,7.46,20.31,9.95,33.33,7.49,5.61-1.06,10.38,0,14.31,3.18,3.93,3.18,5.89,7.58,5.89,13.19s-1.96,10.75-5.89,15.42c-3.93,4.67-8.7,7.54-14.31,8.6l-30.82,5.84c-3.44-3.53-8.27-5.65-13.79-5.65-1.34,0-2.7,.13-4.06,.39-11.32,2.14-20.18,12.74-20.18,24.12s8.25,19.4,19.19,19.4c1.34,0,2.7-.13,4.06-.39,6.74-1.28,12.59-5.56,16.24-11.22l29.36-5.56c13.02-2.47,24.13-9.17,33.33-20.12,9.2-10.95,13.8-22.93,13.8-35.94s-4.6-23.25-13.8-30.71c-9.2-7.46-20.31-9.95-33.33-7.49-5.61,1.06-10.38,0-14.31-3.18-3.93-3.18-5.89-7.58-5.89-13.19s1.96-10.75,5.89-15.42c3.93-4.67,8.7-7.54,14.31-8.6l26.93-5.1v-.07l5.19-.98V138.48l67.33-12.76v134.65l88.62-16.79v53.93c0,14.89-5.26,28.58-15.77,41.08-10.51,12.5-23.21,20.16-38.09,22.98-14.89,2.82-27.59-.03-38.09-8.55-10.51-8.52-15.77-20.22-15.77-35.11v-60.13c5.04-4.61,8.27-11.17,8.27-18.04,0-11.06-8.25-19.4-19.19-19.4-1.34,0-2.7,.13-4.06,.39-11.32,2.14-20.18,12.74-20.18,24.12,0,6.87,3.19,12.69,8.23,16.12v62.05c0,22.29,7.89,39.84,23.68,52.63,15.78,12.8,34.82,17.08,57.11,12.85,22.29-4.22,41.33-15.72,57.11-34.5,15.78-18.77,23.68-39.31,23.68-61.6v-53.93l33.2-6.29v134.72l26.93-5.1v-53.86l4.04-.77,42.53,45.8,34.22-6.48-42.64-46.01c11.07-2.99,20.68-9.34,28.84-19.04,9.2-10.94,13.8-22.93,13.8-35.94v-13.47c0-7.59-1.57-14.22-4.7-19.92,3.15-.25,6.37-.67,9.66-1.29l26.28-4.98v134.72l132.64-25.13v-26.93l-105.71,20.03v-40.4l105.71-20.03v-26.93l-105.71,20.03v-40.4l105.71-20.03v-26.93l-45.8,8.68v-40.47l107.72-20.41v169.37c-4.93,4.6-8.09,11.09-8.09,17.87,0,11.06,8.25,19.4,19.19,19.4,1.34,0,2.7-.13,4.06-.39,11.32-2.14,20.18-12.74,20.18-24.12,0-6.96-3.27-12.83-8.41-16.24ZM347.16,68.42h0c.86-.16,1.71-.24,2.52-.24,6.24,0,10.95,4.59,10.95,11.17,0,7.44-6.03,14.62-13.48,16.03-.86,.16-1.71,.24-2.52,.24-.04,0-.08,0-.12,0-6.18-.06-10.83-4.62-10.83-11.16,0-7.44,6.03-14.62,13.48-16.03ZM23.99,154.25h0c-.86,.16-1.71,.24-2.52,.24-6.24,0-10.95-4.59-10.95-11.17,0-7.44,6.03-14.62,13.48-16.03,.86-.16,1.71-.24,2.52-.24,1.7,0,3.29,.35,4.7,.98,3.76,1.68,6.26,5.4,6.26,10.18,0,7.44-6.03,14.62-13.48,16.03Zm15.01,268.38h0c-.86,.16-1.71,.24-2.52,.24-6.24,0-10.95-4.59-10.95-11.17,0-7.44,6.03-14.62,13.48-16.03,.86-.16,1.71-.24,2.52-.24,.04,0,.08,0,.12,0,6.17,.06,10.83,4.62,10.83,11.16,0,7.44-6.03,14.62-13.48,16.03Zm114.03-166.84c-.86,.16-1.71,.24-2.52,.24-6.24,0-10.95-4.59-10.95-11.17,0-.9,.09-1.8,.26-2.68,1.22-6.42,6.67-12.11,13.22-13.35,.86-.16,1.71-.24,2.52-.24,5.38,0,9.63,3.42,10.69,8.59,.12,.57,.19,1.17,.23,1.78v1.52c-.37,7.18-6.24,13.94-13.44,15.31Zm262.08-5.17c0,5.61-1.96,10.75-5.89,15.42-3.93,4.67-8.7,7.54-14.31,8.6l-33.66,6.38v-53.86l33.66-6.38c5.61-1.06,10.38,0,14.31,3.18,3.93,3.18,5.89,7.58,5.89,13.19v13.47Zm266.35,49.21c-.86,.16-1.71,.24-2.52,.24-6.24,0-10.95-4.59-10.95-11.17,0-7.44,6.03-14.62,13.48-16.03,.86-.16,1.71-.24,2.52-.24,6.24,0,10.95,4.59,10.95,11.17,0,7.44-6.03,14.62-13.48,16.03Z"/><path class="cls-1" d="M682.82,273.64c6.39,0,11.37,4.85,11.37,11.38,0,6.98-5.69,13.24-12.72,13.97-.46,.05-.91,.07-1.35,.07-6.39,0-11.37-4.85-11.37-11.38,0-6.98,5.69-13.24,12.72-13.97,.46-.05,.91-.07,1.35-.07m0-9.67h0c-.79,0-1.58,.04-2.37,.12-12.02,1.26-21.43,11.62-21.43,23.59s9.27,21.05,21.1,21.05c.78,0,1.58-.04,2.37-.12,12.02-1.26,21.43-11.62,21.43-23.59s-9.27-21.05-21.1-21.05h0Z"/><path class="cls-1" d="M25.3,128.05c6.39,0,11.37,4.85,11.37,11.38,0,6.98-5.69,13.24-12.72,13.98-.46,.05-.91,.07-1.35,.07-6.39,0-11.37-4.85-11.37-11.38,0-6.98,5.69-13.24,12.72-13.97,.46-.05,.91-.07,1.35-.07m0-9.67h0c-.79,0-1.58,.04-2.37,.12-12.02,1.26-21.43,11.63-21.43,23.59s9.27,21.05,21.1,21.05c.79,0,1.58-.04,2.37-.12,12.02-1.26,21.43-11.62,21.43-23.59s-9.27-21.05-21.1-21.05h0Z"/></g></g></svg>